<svg width="3350" height="1159" viewBox="0 0 3350 1159" fill="none" xmlns="http://www.w3.org/2000/svg">
    <g id="Map">
    <mask id="path-1-inside-1_14_28" fill="white">
    <rect width="3350" height="1159" rx="9"/>
    </mask>
    <rect width="3350" height="1159" rx="9" fill="white"/>
    <rect width="3350" height="1159" rx="9" stroke="#490403" stroke-width="20" mask="url(#path-1-inside-1_14_28)"/>
    <g id="155">
    <g id="chair">
    <path id="Rectangle 1" d="M2090.75 987.533L2058.11 985.45C2054.91 985.245 2052.3 982.902 2051.85 979.803C2051.19 975.265 2050.5 969.443 2050.5 965C2050.5 960.557 2051.19 954.735 2051.85 950.197C2052.3 947.098 2054.91 944.755 2058.11 944.55L2090.75 942.467C2094.1 942.253 2097.05 944.431 2097.72 947.61C2098.81 952.824 2100 959.74 2100 965C2100 970.26 2098.81 977.176 2097.72 982.39C2097.05 985.569 2094.1 987.747 2090.75 987.533Z" fill="#490403" fill-opacity="0.1" stroke="#490403" stroke-width="4"/>
    <path id="Rectangle 2" d="M2045.09 950C2046.62 950 2047.78 951.364 2047.57 952.872C2047.13 956.036 2046.5 961.182 2046.5 965C2046.5 968.818 2047.13 973.964 2047.57 977.128C2047.78 978.636 2046.62 980 2045.09 980V980C2043.89 980 2042.86 979.13 2042.68 977.935C2042.24 974.905 2041.5 969.163 2041.5 965C2041.5 960.837 2042.24 955.095 2042.68 952.065C2042.86 950.87 2043.89 950 2045.09 950V950Z" fill="#490403"/>
    <rect id="Rectangle 3" x="2089.65" y="934" width="5" height="31" rx="2.5" transform="rotate(86 2089.65 934)" fill="#490403"/>
    <rect id="Rectangle 4" x="2091" y="991.162" width="5" height="31" rx="2.5" transform="rotate(94 2091 991.162)" fill="#490403"/>
    </g>
    <g id="table">
    <g clip-path="url(#clip0_14_28)">
    <rect x="2108" y="1015" width="100" height="61" rx="7" transform="rotate(-90 2108 1015)" fill="#490403" fill-opacity="0.1"/>
    <path id="01" d="M2119.71 975C2119.29 975 2118.91 974.84 2118.59 974.52C2118.27 974.2 2118.11 973.816 2118.11 973.368V953.848L2115.78 954.84C2115.41 954.989 2115.07 955.064 2114.75 955.064C2114.28 955.064 2113.89 954.915 2113.57 954.616C2113.27 954.317 2113.12 953.933 2113.12 953.464C2113.12 953.123 2113.21 952.813 2113.38 952.536C2113.55 952.259 2113.81 952.056 2114.18 951.928L2119.17 950.136C2119.27 950.093 2119.38 950.061 2119.49 950.04C2119.59 950.019 2119.69 950.008 2119.78 950.008C2120.27 950.008 2120.65 950.168 2120.93 950.488C2121.23 950.787 2121.38 951.181 2121.38 951.672V973.368C2121.38 973.816 2121.22 974.2 2120.9 974.52C2120.58 974.84 2120.18 975 2119.71 975ZM2134.77 975C2133.23 975 2131.85 974.648 2130.61 973.944C2129.39 973.219 2128.42 972.237 2127.7 971C2126.99 969.763 2126.64 968.376 2126.64 966.84C2126.64 966.371 2126.79 965.987 2127.09 965.688C2127.39 965.368 2127.77 965.208 2128.24 965.208C2128.71 965.208 2129.11 965.368 2129.43 965.688C2129.75 965.987 2129.91 966.371 2129.91 966.84C2129.91 967.757 2130.12 968.589 2130.55 969.336C2130.97 970.083 2131.55 970.669 2132.27 971.096C2133.02 971.523 2133.85 971.736 2134.77 971.736C2135.71 971.736 2136.54 971.523 2137.27 971.096C2138.01 970.669 2138.6 970.083 2139.03 969.336C2139.45 968.589 2139.67 967.757 2139.67 966.84C2139.67 965.901 2139.45 965.069 2139.03 964.344C2138.6 963.597 2138.01 963.011 2137.27 962.584C2136.54 962.157 2135.71 961.944 2134.77 961.944H2129.43C2128.96 961.944 2128.57 961.795 2128.27 961.496C2127.98 961.176 2127.83 960.781 2127.83 960.312V951.672C2127.83 951.203 2127.98 950.808 2128.27 950.488C2128.57 950.168 2128.96 950.008 2129.43 950.008H2140.11C2140.56 950.008 2140.95 950.179 2141.27 950.52C2141.59 950.84 2141.75 951.224 2141.75 951.672C2141.75 952.099 2141.59 952.472 2141.27 952.792C2140.97 953.112 2140.58 953.272 2140.11 953.272H2131.06V958.68H2134.77C2136.33 958.68 2137.71 959.043 2138.93 959.768C2140.17 960.472 2141.14 961.443 2141.84 962.68C2142.57 963.896 2142.93 965.283 2142.93 966.84C2142.93 968.376 2142.57 969.763 2141.84 971C2141.14 972.237 2140.17 973.219 2138.93 973.944C2137.71 974.648 2136.33 975 2134.77 975ZM2154.9 975C2153.36 975 2151.97 974.648 2150.74 973.944C2149.52 973.219 2148.55 972.237 2147.82 971C2147.12 969.763 2146.77 968.376 2146.77 966.84C2146.77 966.371 2146.92 965.987 2147.22 965.688C2147.51 965.368 2147.9 965.208 2148.37 965.208C2148.84 965.208 2149.23 965.368 2149.55 965.688C2149.87 965.987 2150.03 966.371 2150.03 966.84C2150.03 967.757 2150.24 968.589 2150.67 969.336C2151.1 970.083 2151.67 970.669 2152.4 971.096C2153.15 971.523 2153.98 971.736 2154.9 971.736C2155.83 971.736 2156.67 971.523 2157.39 971.096C2158.14 970.669 2158.72 970.083 2159.15 969.336C2159.58 968.589 2159.79 967.757 2159.79 966.84C2159.79 965.901 2159.58 965.069 2159.15 964.344C2158.72 963.597 2158.14 963.011 2157.39 962.584C2156.67 962.157 2155.83 961.944 2154.9 961.944H2149.55C2149.08 961.944 2148.7 961.795 2148.4 961.496C2148.1 961.176 2147.95 960.781 2147.95 960.312V951.672C2147.95 951.203 2148.1 950.808 2148.4 950.488C2148.7 950.168 2149.08 950.008 2149.55 950.008H2160.24C2160.69 950.008 2161.07 950.179 2161.39 950.52C2161.71 950.84 2161.87 951.224 2161.87 951.672C2161.87 952.099 2161.71 952.472 2161.39 952.792C2161.09 953.112 2160.71 953.272 2160.24 953.272H2151.18V958.68H2154.9C2156.45 958.68 2157.84 959.043 2159.06 959.768C2160.29 960.472 2161.26 961.443 2161.97 962.68C2162.69 963.896 2163.06 965.283 2163.06 966.84C2163.06 968.376 2162.69 969.763 2161.97 971C2161.26 972.237 2160.29 973.219 2159.06 973.944C2157.84 974.648 2156.45 975 2154.9 975Z" fill="#490403"/>
    </g>
    <rect x="2110" y="1013" width="96" height="57" rx="5" transform="rotate(-90 2110 1013)" stroke="#490403" stroke-width="4"/>
    </g>
    </g>
    <g id="151">
    <g id="chair_2">
    <path id="Rectangle 1_2" d="M1746.75 988.533L1714.11 986.45C1710.91 986.245 1708.3 983.902 1707.85 980.803C1707.19 976.265 1706.5 970.443 1706.5 966C1706.5 961.557 1707.19 955.735 1707.85 951.197C1708.3 948.098 1710.91 945.755 1714.11 945.55L1746.75 943.467C1750.1 943.253 1753.05 945.431 1753.72 948.61C1754.81 953.824 1756 960.74 1756 966C1756 971.26 1754.81 978.176 1753.72 983.39C1753.05 986.569 1750.1 988.747 1746.75 988.533Z" fill="#490403" fill-opacity="0.1" stroke="#490403" stroke-width="4"/>
    <path id="Rectangle 2_2" d="M1701.09 951C1702.62 951 1703.78 952.364 1703.57 953.872C1703.13 957.036 1702.5 962.182 1702.5 966C1702.5 969.818 1703.13 974.964 1703.57 978.128C1703.78 979.636 1702.62 981 1701.09 981V981C1699.89 981 1698.86 980.13 1698.68 978.935C1698.24 975.905 1697.5 970.163 1697.5 966C1697.5 961.837 1698.24 956.095 1698.68 953.065C1698.86 951.87 1699.89 951 1701.09 951V951Z" fill="#490403"/>
    <rect id="Rectangle 3_2" x="1745.65" y="935" width="5" height="31" rx="2.5" transform="rotate(86 1745.65 935)" fill="#490403"/>
    <rect id="Rectangle 4_2" x="1747" y="992.162" width="5" height="31" rx="2.5" transform="rotate(94 1747 992.162)" fill="#490403"/>
    </g>
    <g id="table_2">
    <g clip-path="url(#clip1_14_28)">
    <rect x="1764" y="1016" width="100" height="61" rx="7" transform="rotate(-90 1764 1016)" fill="#490403" fill-opacity="0.1"/>
    <path id="01_2" d="M1779.21 976C1778.79 976 1778.41 975.84 1778.09 975.52C1777.77 975.2 1777.61 974.816 1777.61 974.368V954.848L1775.28 955.84C1774.91 955.989 1774.57 956.064 1774.25 956.064C1773.78 956.064 1773.39 955.915 1773.07 955.616C1772.77 955.317 1772.62 954.933 1772.62 954.464C1772.62 954.123 1772.71 953.813 1772.88 953.536C1773.05 953.259 1773.31 953.056 1773.68 952.928L1778.67 951.136C1778.77 951.093 1778.88 951.061 1778.99 951.04C1779.09 951.019 1779.19 951.008 1779.28 951.008C1779.77 951.008 1780.15 951.168 1780.43 951.488C1780.73 951.787 1780.88 952.181 1780.88 952.672V974.368C1780.88 974.816 1780.72 975.2 1780.4 975.52C1780.08 975.84 1779.68 976 1779.21 976ZM1794.27 976C1792.73 976 1791.35 975.648 1790.11 974.944C1788.89 974.219 1787.92 973.237 1787.2 972C1786.49 970.763 1786.14 969.376 1786.14 967.84C1786.14 967.371 1786.29 966.987 1786.59 966.688C1786.89 966.368 1787.27 966.208 1787.74 966.208C1788.21 966.208 1788.61 966.368 1788.93 966.688C1789.25 966.987 1789.41 967.371 1789.41 967.84C1789.41 968.757 1789.62 969.589 1790.05 970.336C1790.47 971.083 1791.05 971.669 1791.77 972.096C1792.52 972.523 1793.35 972.736 1794.27 972.736C1795.21 972.736 1796.04 972.523 1796.77 972.096C1797.51 971.669 1798.1 971.083 1798.53 970.336C1798.95 969.589 1799.17 968.757 1799.17 967.84C1799.17 966.901 1798.95 966.069 1798.53 965.344C1798.1 964.597 1797.51 964.011 1796.77 963.584C1796.04 963.157 1795.21 962.944 1794.27 962.944H1788.93C1788.46 962.944 1788.07 962.795 1787.77 962.496C1787.48 962.176 1787.33 961.781 1787.33 961.312V952.672C1787.33 952.203 1787.48 951.808 1787.77 951.488C1788.07 951.168 1788.46 951.008 1788.93 951.008H1799.61C1800.06 951.008 1800.45 951.179 1800.77 951.52C1801.09 951.84 1801.25 952.224 1801.25 952.672C1801.25 953.099 1801.09 953.472 1800.77 953.792C1800.47 954.112 1800.08 954.272 1799.61 954.272H1790.56V959.68H1794.27C1795.83 959.68 1797.21 960.043 1798.43 960.768C1799.67 961.472 1800.64 962.443 1801.34 963.68C1802.07 964.896 1802.43 966.283 1802.43 967.84C1802.43 969.376 1802.07 970.763 1801.34 972C1800.64 973.237 1799.67 974.219 1798.43 974.944C1797.21 975.648 1795.83 976 1794.27 976ZM1811.9 976C1811.47 976 1811.1 975.84 1810.78 975.52C1810.46 975.2 1810.3 974.816 1810.3 974.368V954.848L1807.96 955.84C1807.6 955.989 1807.26 956.064 1806.94 956.064C1806.47 956.064 1806.08 955.915 1805.76 955.616C1805.46 955.317 1805.31 954.933 1805.31 954.464C1805.31 954.123 1805.39 953.813 1805.56 953.536C1805.73 953.259 1806 953.056 1806.36 952.928L1811.36 951.136C1811.46 951.093 1811.57 951.061 1811.68 951.04C1811.78 951.019 1811.88 951.008 1811.96 951.008C1812.45 951.008 1812.84 951.168 1813.12 951.488C1813.41 951.787 1813.56 952.181 1813.56 952.672V974.368C1813.56 974.816 1813.4 975.2 1813.08 975.52C1812.76 975.84 1812.37 976 1811.9 976Z" fill="#490403"/>
    </g>
    <rect x="1766" y="1014" width="96" height="57" rx="5" transform="rotate(-90 1766 1014)" stroke="#490403" stroke-width="4"/>
    </g>
    </g>
    <g id="156">
    <g id="chair_3">
    <path id="Rectangle 1_3" d="M2090.75 1093.53L2058.11 1091.45C2054.91 1091.25 2052.3 1088.9 2051.85 1085.8C2051.19 1081.27 2050.5 1075.44 2050.5 1071C2050.5 1066.56 2051.19 1060.73 2051.85 1056.2C2052.3 1053.1 2054.91 1050.75 2058.11 1050.55L2090.75 1048.47C2094.1 1048.25 2097.05 1050.43 2097.72 1053.61C2098.81 1058.82 2100 1065.74 2100 1071C2100 1076.26 2098.81 1083.18 2097.72 1088.39C2097.05 1091.57 2094.1 1093.75 2090.75 1093.53Z" fill="#490403" fill-opacity="0.1" stroke="#490403" stroke-width="4"/>
    <path id="Rectangle 2_3" d="M2045.09 1056C2046.62 1056 2047.78 1057.36 2047.57 1058.87C2047.13 1062.04 2046.5 1067.18 2046.5 1071C2046.5 1074.82 2047.13 1079.96 2047.57 1083.13C2047.78 1084.64 2046.62 1086 2045.09 1086V1086C2043.89 1086 2042.86 1085.13 2042.68 1083.94C2042.24 1080.9 2041.5 1075.16 2041.5 1071C2041.5 1066.84 2042.24 1061.1 2042.68 1058.06C2042.86 1056.87 2043.89 1056 2045.09 1056V1056Z" fill="#490403"/>
    <rect id="Rectangle 3_3" x="2089.65" y="1040" width="5" height="31" rx="2.5" transform="rotate(86 2089.65 1040)" fill="#490403"/>
    <rect id="Rectangle 4_3" x="2091" y="1097.16" width="5" height="31" rx="2.5" transform="rotate(94 2091 1097.16)" fill="#490403"/>
    </g>
    <g id="table_3">
    <g clip-path="url(#clip2_14_28)">
    <rect x="2108" y="1121" width="100" height="61" rx="7" transform="rotate(-90 2108 1121)" fill="#490403" fill-opacity="0.1"/>
    <path id="01_3" d="M2120.21 1081C2119.79 1081 2119.41 1080.84 2119.09 1080.52C2118.77 1080.2 2118.61 1079.82 2118.61 1079.37V1059.85L2116.28 1060.84C2115.91 1060.99 2115.57 1061.06 2115.25 1061.06C2114.78 1061.06 2114.39 1060.91 2114.07 1060.62C2113.77 1060.32 2113.62 1059.93 2113.62 1059.46C2113.62 1059.12 2113.71 1058.81 2113.88 1058.54C2114.05 1058.26 2114.31 1058.06 2114.68 1057.93L2119.67 1056.14C2119.77 1056.09 2119.88 1056.06 2119.99 1056.04C2120.09 1056.02 2120.19 1056.01 2120.28 1056.01C2120.77 1056.01 2121.15 1056.17 2121.43 1056.49C2121.73 1056.79 2121.88 1057.18 2121.88 1057.67V1079.37C2121.88 1079.82 2121.72 1080.2 2121.4 1080.52C2121.08 1080.84 2120.68 1081 2120.21 1081ZM2135.27 1081C2133.73 1081 2132.35 1080.65 2131.11 1079.94C2129.89 1079.22 2128.92 1078.24 2128.2 1077C2127.49 1075.76 2127.14 1074.38 2127.14 1072.84C2127.14 1072.37 2127.29 1071.99 2127.59 1071.69C2127.89 1071.37 2128.27 1071.21 2128.74 1071.21C2129.21 1071.21 2129.61 1071.37 2129.93 1071.69C2130.25 1071.99 2130.41 1072.37 2130.41 1072.84C2130.41 1073.76 2130.62 1074.59 2131.05 1075.34C2131.47 1076.08 2132.05 1076.67 2132.77 1077.1C2133.52 1077.52 2134.35 1077.74 2135.27 1077.74C2136.21 1077.74 2137.04 1077.52 2137.77 1077.1C2138.51 1076.67 2139.1 1076.08 2139.53 1075.34C2139.95 1074.59 2140.17 1073.76 2140.17 1072.84C2140.17 1071.9 2139.95 1071.07 2139.53 1070.34C2139.1 1069.6 2138.51 1069.01 2137.77 1068.58C2137.04 1068.16 2136.21 1067.94 2135.27 1067.94H2129.93C2129.46 1067.94 2129.07 1067.79 2128.77 1067.5C2128.48 1067.18 2128.33 1066.78 2128.33 1066.31V1057.67C2128.33 1057.2 2128.48 1056.81 2128.77 1056.49C2129.07 1056.17 2129.46 1056.01 2129.93 1056.01H2140.61C2141.06 1056.01 2141.45 1056.18 2141.77 1056.52C2142.09 1056.84 2142.25 1057.22 2142.25 1057.67C2142.25 1058.1 2142.09 1058.47 2141.77 1058.79C2141.47 1059.11 2141.08 1059.27 2140.61 1059.27H2131.56V1064.68H2135.27C2136.83 1064.68 2138.21 1065.04 2139.43 1065.77C2140.67 1066.47 2141.64 1067.44 2142.34 1068.68C2143.07 1069.9 2143.43 1071.28 2143.43 1072.84C2143.43 1074.38 2143.07 1075.76 2142.34 1077C2141.64 1078.24 2140.67 1079.22 2139.43 1079.94C2138.21 1080.65 2136.83 1081 2135.27 1081ZM2154.82 1081C2153.35 1081 2152.04 1080.68 2150.88 1080.04C2149.75 1079.38 2148.87 1078.48 2148.23 1077.35C2147.59 1076.2 2147.27 1074.89 2147.27 1073.42C2147.27 1071.92 2147.59 1070.61 2148.23 1069.48C2148.87 1068.33 2149.75 1067.43 2150.88 1066.79C2152.04 1066.13 2153.35 1065.8 2154.82 1065.8C2156.29 1065.8 2157.59 1066.13 2158.72 1066.79C2159.85 1067.43 2160.74 1068.33 2161.38 1069.48C2162.02 1070.61 2162.34 1071.92 2162.34 1073.42C2162.34 1074.89 2162.02 1076.2 2161.38 1077.35C2160.74 1078.48 2159.85 1079.38 2158.72 1080.04C2157.59 1080.68 2156.29 1081 2154.82 1081ZM2154.79 1078.12C2155.66 1078.12 2156.43 1077.93 2157.09 1077.54C2157.77 1077.14 2158.31 1076.58 2158.69 1075.88C2159.08 1075.15 2159.27 1074.33 2159.27 1073.42C2159.27 1072.48 2159.08 1071.66 2158.69 1070.95C2158.31 1070.25 2157.77 1069.69 2157.09 1069.29C2156.43 1068.88 2155.66 1068.68 2154.79 1068.68C2153.91 1068.68 2153.13 1068.88 2152.45 1069.29C2151.79 1069.69 2151.27 1070.25 2150.88 1070.95C2150.52 1071.66 2150.34 1072.48 2150.34 1073.42C2150.34 1074.33 2150.52 1075.15 2150.88 1075.88C2151.27 1076.58 2151.79 1077.14 2152.45 1077.54C2153.13 1077.93 2153.91 1078.12 2154.79 1078.12ZM2148.32 1069.32L2155.75 1056.94C2156.13 1056.34 2156.62 1056.04 2157.22 1056.04C2157.67 1056.04 2158.04 1056.17 2158.34 1056.42C2158.64 1056.68 2158.82 1057 2158.88 1057.38C2158.97 1057.77 2158.89 1058.15 2158.66 1058.54L2154.12 1066.09L2148.32 1069.32Z" fill="#490403"/>
    </g>
    <rect x="2110" y="1119" width="96" height="57" rx="5" transform="rotate(-90 2110 1119)" stroke="#490403" stroke-width="4"/>
    </g>
    </g>
    <g id="152">
    <g id="chair_4">
    <path id="Rectangle 1_4" d="M1746.75 1094.53L1714.11 1092.45C1710.91 1092.25 1708.3 1089.9 1707.85 1086.8C1707.19 1082.27 1706.5 1076.44 1706.5 1072C1706.5 1067.56 1707.19 1061.73 1707.85 1057.2C1708.3 1054.1 1710.91 1051.75 1714.11 1051.55L1746.75 1049.47C1750.1 1049.25 1753.05 1051.43 1753.72 1054.61C1754.81 1059.82 1756 1066.74 1756 1072C1756 1077.26 1754.81 1084.18 1753.72 1089.39C1753.05 1092.57 1750.1 1094.75 1746.75 1094.53Z" fill="#490403" fill-opacity="0.1" stroke="#490403" stroke-width="4"/>
    <path id="Rectangle 2_4" d="M1701.09 1057C1702.62 1057 1703.78 1058.36 1703.57 1059.87C1703.13 1063.04 1702.5 1068.18 1702.5 1072C1702.5 1075.82 1703.13 1080.96 1703.57 1084.13C1703.78 1085.64 1702.62 1087 1701.09 1087V1087C1699.89 1087 1698.86 1086.13 1698.68 1084.94C1698.24 1081.9 1697.5 1076.16 1697.5 1072C1697.5 1067.84 1698.24 1062.1 1698.68 1059.06C1698.86 1057.87 1699.89 1057 1701.09 1057V1057Z" fill="#490403"/>
    <rect id="Rectangle 3_4" x="1745.65" y="1041" width="5" height="31" rx="2.5" transform="rotate(86 1745.65 1041)" fill="#490403"/>
    <rect id="Rectangle 4_4" x="1747" y="1098.16" width="5" height="31" rx="2.5" transform="rotate(94 1747 1098.16)" fill="#490403"/>
    </g>
    <g id="table_4">
    <g clip-path="url(#clip3_14_28)">
    <rect x="1764" y="1122" width="100" height="61" rx="7" transform="rotate(-90 1764 1122)" fill="#490403" fill-opacity="0.1"/>
    <path id="01_4" d="M1776.21 1082C1775.79 1082 1775.41 1081.84 1775.09 1081.52C1774.77 1081.2 1774.61 1080.82 1774.61 1080.37V1060.85L1772.28 1061.84C1771.91 1061.99 1771.57 1062.06 1771.25 1062.06C1770.78 1062.06 1770.39 1061.91 1770.07 1061.62C1769.77 1061.32 1769.62 1060.93 1769.62 1060.46C1769.62 1060.12 1769.71 1059.81 1769.88 1059.54C1770.05 1059.26 1770.31 1059.06 1770.68 1058.93L1775.67 1057.14C1775.77 1057.09 1775.88 1057.06 1775.99 1057.04C1776.09 1057.02 1776.19 1057.01 1776.28 1057.01C1776.77 1057.01 1777.15 1057.17 1777.43 1057.49C1777.73 1057.79 1777.88 1058.18 1777.88 1058.67V1080.37C1777.88 1080.82 1777.72 1081.2 1777.4 1081.52C1777.08 1081.84 1776.68 1082 1776.21 1082ZM1791.27 1082C1789.73 1082 1788.35 1081.65 1787.11 1080.94C1785.89 1080.22 1784.92 1079.24 1784.2 1078C1783.49 1076.76 1783.14 1075.38 1783.14 1073.84C1783.14 1073.37 1783.29 1072.99 1783.59 1072.69C1783.89 1072.37 1784.27 1072.21 1784.74 1072.21C1785.21 1072.21 1785.61 1072.37 1785.93 1072.69C1786.25 1072.99 1786.41 1073.37 1786.41 1073.84C1786.41 1074.76 1786.62 1075.59 1787.05 1076.34C1787.47 1077.08 1788.05 1077.67 1788.77 1078.1C1789.52 1078.52 1790.35 1078.74 1791.27 1078.74C1792.21 1078.74 1793.04 1078.52 1793.77 1078.1C1794.51 1077.67 1795.1 1077.08 1795.53 1076.34C1795.95 1075.59 1796.17 1074.76 1796.17 1073.84C1796.17 1072.9 1795.95 1072.07 1795.53 1071.34C1795.1 1070.6 1794.51 1070.01 1793.77 1069.58C1793.04 1069.16 1792.21 1068.94 1791.27 1068.94H1785.93C1785.46 1068.94 1785.07 1068.79 1784.77 1068.5C1784.48 1068.18 1784.33 1067.78 1784.33 1067.31V1058.67C1784.33 1058.2 1784.48 1057.81 1784.77 1057.49C1785.07 1057.17 1785.46 1057.01 1785.93 1057.01H1796.61C1797.06 1057.01 1797.45 1057.18 1797.77 1057.52C1798.09 1057.84 1798.25 1058.22 1798.25 1058.67C1798.25 1059.1 1798.09 1059.47 1797.77 1059.79C1797.47 1060.11 1797.08 1060.27 1796.61 1060.27H1787.56V1065.68H1791.27C1792.83 1065.68 1794.21 1066.04 1795.43 1066.77C1796.67 1067.47 1797.64 1068.44 1798.34 1069.68C1799.07 1070.9 1799.43 1072.28 1799.43 1073.84C1799.43 1075.38 1799.07 1076.76 1798.34 1078C1797.64 1079.24 1796.67 1080.22 1795.43 1080.94C1794.21 1081.65 1792.83 1082 1791.27 1082ZM1804.9 1082C1804.43 1082 1804.04 1081.84 1803.72 1081.52C1803.42 1081.2 1803.27 1080.82 1803.27 1080.37C1803.27 1079.9 1803.42 1079.51 1803.72 1079.22L1812.8 1068.59C1813.44 1067.85 1813.93 1067.14 1814.28 1066.48C1814.64 1065.82 1814.82 1065.19 1814.82 1064.59C1814.82 1063.65 1814.66 1062.84 1814.34 1062.16C1814.02 1061.48 1813.56 1060.95 1812.96 1060.59C1812.37 1060.21 1811.65 1060.02 1810.82 1060.02C1810.01 1060.02 1809.27 1060.23 1808.61 1060.66C1807.97 1061.06 1807.46 1061.62 1807.08 1062.32C1806.71 1063 1806.53 1063.76 1806.53 1064.59C1806.53 1065.02 1806.37 1065.39 1806.05 1065.71C1805.75 1066.03 1805.37 1066.19 1804.9 1066.19C1804.45 1066.19 1804.07 1066.03 1803.75 1065.71C1803.43 1065.39 1803.27 1065.02 1803.27 1064.59C1803.27 1063.14 1803.6 1061.85 1804.26 1060.72C1804.92 1059.57 1805.82 1058.66 1806.95 1058C1808.1 1057.34 1809.39 1057.01 1810.82 1057.01C1812.27 1057.01 1813.53 1057.32 1814.6 1057.94C1815.66 1058.55 1816.48 1059.43 1817.06 1060.56C1817.66 1061.69 1817.96 1063.03 1817.96 1064.59C1817.96 1065.27 1817.81 1065.97 1817.51 1066.67C1817.23 1067.38 1816.87 1068.05 1816.42 1068.69C1815.99 1069.33 1815.56 1069.9 1815.11 1070.42L1807.78 1078.74H1816.74C1817.21 1078.74 1817.6 1078.91 1817.92 1079.25C1818.24 1079.57 1818.4 1079.94 1818.4 1080.37C1818.4 1080.82 1818.24 1081.2 1817.92 1081.52C1817.6 1081.84 1817.21 1082 1816.74 1082H1804.9Z" fill="#490403"/>
    </g>
    <rect x="1766" y="1120" width="96" height="57" rx="5" transform="rotate(-90 1766 1120)" stroke="#490403" stroke-width="4"/>
    </g>
    </g>
    <g id="157">
    <g id="chair_5">
    <path id="Rectangle 1_5" d="M2252.25 942.467L2284.89 944.55C2288.09 944.755 2290.7 947.098 2291.15 950.197C2291.81 954.735 2292.5 960.557 2292.5 965C2292.5 969.443 2291.81 975.265 2291.15 979.803C2290.7 982.902 2288.09 985.245 2284.89 985.45L2252.25 987.533C2248.9 987.747 2245.95 985.569 2245.28 982.39C2244.19 977.176 2243 970.26 2243 965C2243 959.74 2244.19 952.824 2245.28 947.61C2245.95 944.431 2248.9 942.253 2252.25 942.467Z" fill="#490403" fill-opacity="0.1" stroke="#490403" stroke-width="4"/>
    <path id="Rectangle 2_5" d="M2297.91 980C2296.38 980 2295.22 978.636 2295.43 977.128C2295.87 973.964 2296.5 968.818 2296.5 965C2296.5 961.182 2295.87 956.036 2295.43 952.872C2295.22 951.364 2296.38 950 2297.91 950V950C2299.11 950 2300.14 950.87 2300.32 952.065C2300.76 955.095 2301.5 960.837 2301.5 965C2301.5 969.163 2300.76 974.905 2300.32 977.935C2300.14 979.13 2299.11 980 2297.91 980V980Z" fill="#490403"/>
    <rect id="Rectangle 3_5" x="2253.35" y="996" width="5" height="31" rx="2.5" transform="rotate(-94 2253.35 996)" fill="#490403"/>
    <rect id="Rectangle 4_5" x="2252" y="938.838" width="5" height="31" rx="2.5" transform="rotate(-86 2252 938.838)" fill="#490403"/>
    </g>
    <g id="table_5">
    <g clip-path="url(#clip4_14_28)">
    <rect x="2174" y="1015" width="100" height="61" rx="7" transform="rotate(-90 2174 1015)" fill="#490403" fill-opacity="0.1"/>
    <path id="01_5" d="M2186.71 975C2186.29 975 2185.91 974.84 2185.59 974.52C2185.27 974.2 2185.11 973.816 2185.11 973.368V953.848L2182.78 954.84C2182.41 954.989 2182.07 955.064 2181.75 955.064C2181.28 955.064 2180.89 954.915 2180.57 954.616C2180.27 954.317 2180.12 953.933 2180.12 953.464C2180.12 953.123 2180.21 952.813 2180.38 952.536C2180.55 952.259 2180.81 952.056 2181.18 951.928L2186.17 950.136C2186.27 950.093 2186.38 950.061 2186.49 950.04C2186.59 950.019 2186.69 950.008 2186.78 950.008C2187.27 950.008 2187.65 950.168 2187.93 950.488C2188.23 950.787 2188.38 951.181 2188.38 951.672V973.368C2188.38 973.816 2188.22 974.2 2187.9 974.52C2187.58 974.84 2187.18 975 2186.71 975ZM2201.77 975C2200.23 975 2198.85 974.648 2197.61 973.944C2196.39 973.219 2195.42 972.237 2194.7 971C2193.99 969.763 2193.64 968.376 2193.64 966.84C2193.64 966.371 2193.79 965.987 2194.09 965.688C2194.39 965.368 2194.77 965.208 2195.24 965.208C2195.71 965.208 2196.11 965.368 2196.43 965.688C2196.75 965.987 2196.91 966.371 2196.91 966.84C2196.91 967.757 2197.12 968.589 2197.55 969.336C2197.97 970.083 2198.55 970.669 2199.27 971.096C2200.02 971.523 2200.85 971.736 2201.77 971.736C2202.71 971.736 2203.54 971.523 2204.27 971.096C2205.01 970.669 2205.6 970.083 2206.03 969.336C2206.45 968.589 2206.67 967.757 2206.67 966.84C2206.67 965.901 2206.45 965.069 2206.03 964.344C2205.6 963.597 2205.01 963.011 2204.27 962.584C2203.54 962.157 2202.71 961.944 2201.77 961.944H2196.43C2195.96 961.944 2195.57 961.795 2195.27 961.496C2194.98 961.176 2194.83 960.781 2194.83 960.312V951.672C2194.83 951.203 2194.98 950.808 2195.27 950.488C2195.57 950.168 2195.96 950.008 2196.43 950.008H2207.11C2207.56 950.008 2207.95 950.179 2208.27 950.52C2208.59 950.84 2208.75 951.224 2208.75 951.672C2208.75 952.099 2208.59 952.472 2208.27 952.792C2207.97 953.112 2207.58 953.272 2207.11 953.272H2198.06V958.68H2201.77C2203.33 958.68 2204.71 959.043 2205.93 959.768C2207.17 960.472 2208.14 961.443 2208.84 962.68C2209.57 963.896 2209.93 965.283 2209.93 966.84C2209.93 968.376 2209.57 969.763 2208.84 971C2208.14 972.237 2207.17 973.219 2205.93 973.944C2204.71 974.648 2203.33 975 2201.77 975ZM2216.26 975C2215.84 975 2215.46 974.84 2215.14 974.52C2214.82 974.2 2214.66 973.816 2214.66 973.368C2214.66 973.197 2214.68 973.037 2214.73 972.888C2214.79 972.717 2214.87 972.536 2214.95 972.344L2224.14 953.272H2214.41C2213.94 953.272 2213.54 953.123 2213.22 952.824C2212.92 952.504 2212.78 952.109 2212.78 951.64C2212.78 951.171 2212.92 950.787 2213.22 950.488C2213.54 950.168 2213.94 950.008 2214.41 950.008H2226.6C2227.05 950.008 2227.43 950.168 2227.75 950.488C2228.07 950.808 2228.23 951.192 2228.23 951.64C2228.23 951.789 2228.21 951.939 2228.17 952.088C2228.12 952.216 2228.07 952.355 2228.01 952.504L2217.77 974.104C2217.43 974.701 2216.92 975 2216.26 975Z" fill="#490403"/>
    </g>
    <rect x="2176" y="1013" width="96" height="57" rx="5" transform="rotate(-90 2176 1013)" stroke="#490403" stroke-width="4"/>
    </g>
    </g>
    <g id="153">
    <g id="chair_6">
    <path id="Rectangle 1_6" d="M1908.25 943.467L1940.89 945.55C1944.09 945.755 1946.7 948.098 1947.15 951.197C1947.81 955.735 1948.5 961.557 1948.5 966C1948.5 970.443 1947.81 976.265 1947.15 980.803C1946.7 983.902 1944.09 986.245 1940.89 986.45L1908.25 988.533C1904.9 988.747 1901.95 986.569 1901.28 983.39C1900.19 978.176 1899 971.26 1899 966C1899 960.74 1900.19 953.824 1901.28 948.61C1901.95 945.431 1904.9 943.253 1908.25 943.467Z" fill="#490403" fill-opacity="0.1" stroke="#490403" stroke-width="4"/>
    <path id="Rectangle 2_6" d="M1953.91 981C1952.38 981 1951.22 979.636 1951.43 978.128C1951.87 974.964 1952.5 969.818 1952.5 966C1952.5 962.182 1951.87 957.036 1951.43 953.872C1951.22 952.364 1952.38 951 1953.91 951V951C1955.11 951 1956.14 951.87 1956.32 953.065C1956.76 956.095 1957.5 961.837 1957.5 966C1957.5 970.163 1956.76 975.905 1956.32 978.935C1956.14 980.13 1955.11 981 1953.91 981V981Z" fill="#490403"/>
    <rect id="Rectangle 3_6" x="1909.35" y="997" width="5" height="31" rx="2.5" transform="rotate(-94 1909.35 997)" fill="#490403"/>
    <rect id="Rectangle 4_6" x="1908" y="939.838" width="5" height="31" rx="2.5" transform="rotate(-86 1908 939.838)" fill="#490403"/>
    </g>
    <g id="table_6">
    <g clip-path="url(#clip5_14_28)">
    <rect x="1830" y="1016" width="100" height="61" rx="7" transform="rotate(-90 1830 1016)" fill="#490403" fill-opacity="0.1"/>
    <path id="01_6" d="M1842.21 976C1841.79 976 1841.41 975.84 1841.09 975.52C1840.77 975.2 1840.61 974.816 1840.61 974.368V954.848L1838.28 955.84C1837.91 955.989 1837.57 956.064 1837.25 956.064C1836.78 956.064 1836.39 955.915 1836.07 955.616C1835.77 955.317 1835.62 954.933 1835.62 954.464C1835.62 954.123 1835.71 953.813 1835.88 953.536C1836.05 953.259 1836.31 953.056 1836.68 952.928L1841.67 951.136C1841.77 951.093 1841.88 951.061 1841.99 951.04C1842.09 951.019 1842.19 951.008 1842.28 951.008C1842.77 951.008 1843.15 951.168 1843.43 951.488C1843.73 951.787 1843.88 952.181 1843.88 952.672V974.368C1843.88 974.816 1843.72 975.2 1843.4 975.52C1843.08 975.84 1842.68 976 1842.21 976ZM1857.27 976C1855.73 976 1854.35 975.648 1853.11 974.944C1851.89 974.219 1850.92 973.237 1850.2 972C1849.49 970.763 1849.14 969.376 1849.14 967.84C1849.14 967.371 1849.29 966.987 1849.59 966.688C1849.89 966.368 1850.27 966.208 1850.74 966.208C1851.21 966.208 1851.61 966.368 1851.93 966.688C1852.25 966.987 1852.41 967.371 1852.41 967.84C1852.41 968.757 1852.62 969.589 1853.05 970.336C1853.47 971.083 1854.05 971.669 1854.77 972.096C1855.52 972.523 1856.35 972.736 1857.27 972.736C1858.21 972.736 1859.04 972.523 1859.77 972.096C1860.51 971.669 1861.1 971.083 1861.53 970.336C1861.95 969.589 1862.17 968.757 1862.17 967.84C1862.17 966.901 1861.95 966.069 1861.53 965.344C1861.1 964.597 1860.51 964.011 1859.77 963.584C1859.04 963.157 1858.21 962.944 1857.27 962.944H1851.93C1851.46 962.944 1851.07 962.795 1850.77 962.496C1850.48 962.176 1850.33 961.781 1850.33 961.312V952.672C1850.33 952.203 1850.48 951.808 1850.77 951.488C1851.07 951.168 1851.46 951.008 1851.93 951.008H1862.61C1863.06 951.008 1863.45 951.179 1863.77 951.52C1864.09 951.84 1864.25 952.224 1864.25 952.672C1864.25 953.099 1864.09 953.472 1863.77 953.792C1863.47 954.112 1863.08 954.272 1862.61 954.272H1853.56V959.68H1857.27C1858.83 959.68 1860.21 960.043 1861.43 960.768C1862.67 961.472 1863.64 962.443 1864.34 963.68C1865.07 964.896 1865.43 966.283 1865.43 967.84C1865.43 969.376 1865.07 970.763 1864.34 972C1863.64 973.237 1862.67 974.219 1861.43 974.944C1860.21 975.648 1858.83 976 1857.27 976ZM1877.17 976C1875.57 976 1874.15 975.669 1872.92 975.008C1871.68 974.325 1870.71 973.408 1870 972.256C1869.3 971.083 1868.95 969.771 1868.95 968.32C1868.95 967.829 1869.09 967.435 1869.36 967.136C1869.66 966.816 1870.01 966.656 1870.42 966.656C1870.85 966.656 1871.2 966.816 1871.48 967.136C1871.75 967.435 1871.89 967.829 1871.89 968.32C1871.89 969.195 1872.12 970.005 1872.56 970.752C1873.01 971.477 1873.62 972.064 1874.39 972.512C1875.16 972.939 1876.02 973.152 1876.98 973.152C1878.39 973.152 1879.52 972.768 1880.37 972C1881.25 971.211 1881.68 970.112 1881.68 968.704C1881.68 967.808 1881.49 967.008 1881.11 966.304C1880.72 965.579 1880.2 965.003 1879.54 964.576C1878.88 964.149 1878.13 963.936 1877.3 963.936C1876.83 963.936 1876.44 963.776 1876.12 963.456C1875.82 963.136 1875.67 962.741 1875.67 962.272C1875.67 961.803 1875.82 961.419 1876.12 961.12C1876.44 960.8 1876.83 960.64 1877.3 960.64C1877.9 960.64 1878.47 960.491 1879.03 960.192C1879.58 959.872 1880.04 959.456 1880.4 958.944C1880.77 958.411 1880.95 957.813 1880.95 957.152C1880.95 956.213 1880.61 955.424 1879.92 954.784C1879.24 954.144 1878.37 953.824 1877.3 953.824C1876.49 953.824 1875.74 953.984 1875.06 954.304C1874.4 954.624 1873.86 955.051 1873.46 955.584C1873.08 956.117 1872.88 956.715 1872.88 957.376C1872.88 957.867 1872.74 958.283 1872.47 958.624C1872.19 958.944 1871.84 959.104 1871.41 959.104C1871.01 959.104 1870.65 958.955 1870.36 958.656C1870.08 958.336 1869.94 957.941 1869.94 957.472C1869.94 956.235 1870.26 955.125 1870.9 954.144C1871.54 953.163 1872.41 952.395 1873.52 951.84C1874.63 951.264 1875.87 950.976 1877.24 950.976C1878.49 950.976 1879.62 951.253 1880.63 951.808C1881.65 952.341 1882.45 953.077 1883.03 954.016C1883.62 954.933 1883.92 955.979 1883.92 957.152C1883.92 957.984 1883.73 958.72 1883.35 959.36C1882.98 960 1882.52 960.555 1881.94 961.024C1881.36 961.472 1880.76 961.845 1880.12 962.144C1881.25 962.528 1882.16 963.051 1882.87 963.712C1883.57 964.352 1884.08 965.099 1884.4 965.952C1884.74 966.805 1884.92 967.733 1884.92 968.736C1884.92 970.123 1884.56 971.371 1883.86 972.48C1883.16 973.568 1882.22 974.432 1881.04 975.072C1879.87 975.691 1878.58 976 1877.17 976Z" fill="#490403"/>
    </g>
    <rect x="1832" y="1014" width="96" height="57" rx="5" transform="rotate(-90 1832 1014)" stroke="#490403" stroke-width="4"/>
    </g>
    </g>
    <g id="158">
    <g id="chair_7">
    <path id="Rectangle 1_7" d="M2252.25 1048.47L2284.89 1050.55C2288.09 1050.75 2290.7 1053.1 2291.15 1056.2C2291.81 1060.73 2292.5 1066.56 2292.5 1071C2292.5 1075.44 2291.81 1081.27 2291.15 1085.8C2290.7 1088.9 2288.09 1091.25 2284.89 1091.45L2252.25 1093.53C2248.9 1093.75 2245.95 1091.57 2245.28 1088.39C2244.19 1083.18 2243 1076.26 2243 1071C2243 1065.74 2244.19 1058.82 2245.28 1053.61C2245.95 1050.43 2248.9 1048.25 2252.25 1048.47Z" fill="#490403" fill-opacity="0.1" stroke="#490403" stroke-width="4"/>
    <path id="Rectangle 2_7" d="M2297.91 1086C2296.38 1086 2295.22 1084.64 2295.43 1083.13C2295.87 1079.96 2296.5 1074.82 2296.5 1071C2296.5 1067.18 2295.87 1062.04 2295.43 1058.87C2295.22 1057.36 2296.38 1056 2297.91 1056V1056C2299.11 1056 2300.14 1056.87 2300.32 1058.06C2300.76 1061.1 2301.5 1066.84 2301.5 1071C2301.5 1075.16 2300.76 1080.9 2300.32 1083.94C2300.14 1085.13 2299.11 1086 2297.91 1086V1086Z" fill="#490403"/>
    <rect id="Rectangle 3_7" x="2253.35" y="1102" width="5" height="31" rx="2.5" transform="rotate(-94 2253.35 1102)" fill="#490403"/>
    <rect id="Rectangle 4_7" x="2252" y="1044.84" width="5" height="31" rx="2.5" transform="rotate(-86 2252 1044.84)" fill="#490403"/>
    </g>
    <g id="table_7">
    <g clip-path="url(#clip6_14_28)">
    <rect x="2174" y="1121" width="100" height="61" rx="7" transform="rotate(-90 2174 1121)" fill="#490403" fill-opacity="0.1"/>
    <path id="01_7" d="M2186.21 1081C2185.79 1081 2185.41 1080.84 2185.09 1080.52C2184.77 1080.2 2184.61 1079.82 2184.61 1079.37V1059.85L2182.28 1060.84C2181.91 1060.99 2181.57 1061.06 2181.25 1061.06C2180.78 1061.06 2180.39 1060.91 2180.07 1060.62C2179.77 1060.32 2179.62 1059.93 2179.62 1059.46C2179.62 1059.12 2179.71 1058.81 2179.88 1058.54C2180.05 1058.26 2180.31 1058.06 2180.68 1057.93L2185.67 1056.14C2185.77 1056.09 2185.88 1056.06 2185.99 1056.04C2186.09 1056.02 2186.19 1056.01 2186.28 1056.01C2186.77 1056.01 2187.15 1056.17 2187.43 1056.49C2187.73 1056.79 2187.88 1057.18 2187.88 1057.67V1079.37C2187.88 1079.82 2187.72 1080.2 2187.4 1080.52C2187.08 1080.84 2186.68 1081 2186.21 1081ZM2201.27 1081C2199.73 1081 2198.35 1080.65 2197.11 1079.94C2195.89 1079.22 2194.92 1078.24 2194.2 1077C2193.49 1075.76 2193.14 1074.38 2193.14 1072.84C2193.14 1072.37 2193.29 1071.99 2193.59 1071.69C2193.89 1071.37 2194.27 1071.21 2194.74 1071.21C2195.21 1071.21 2195.61 1071.37 2195.93 1071.69C2196.25 1071.99 2196.41 1072.37 2196.41 1072.84C2196.41 1073.76 2196.62 1074.59 2197.05 1075.34C2197.47 1076.08 2198.05 1076.67 2198.77 1077.1C2199.52 1077.52 2200.35 1077.74 2201.27 1077.74C2202.21 1077.74 2203.04 1077.52 2203.77 1077.1C2204.51 1076.67 2205.1 1076.08 2205.53 1075.34C2205.95 1074.59 2206.17 1073.76 2206.17 1072.84C2206.17 1071.9 2205.95 1071.07 2205.53 1070.34C2205.1 1069.6 2204.51 1069.01 2203.77 1068.58C2203.04 1068.16 2202.21 1067.94 2201.27 1067.94H2195.93C2195.46 1067.94 2195.07 1067.79 2194.77 1067.5C2194.48 1067.18 2194.33 1066.78 2194.33 1066.31V1057.67C2194.33 1057.2 2194.48 1056.81 2194.77 1056.49C2195.07 1056.17 2195.46 1056.01 2195.93 1056.01H2206.61C2207.06 1056.01 2207.45 1056.18 2207.77 1056.52C2208.09 1056.84 2208.25 1057.22 2208.25 1057.67C2208.25 1058.1 2208.09 1058.47 2207.77 1058.79C2207.47 1059.11 2207.08 1059.27 2206.61 1059.27H2197.56V1064.68H2201.27C2202.83 1064.68 2204.21 1065.04 2205.43 1065.77C2206.67 1066.47 2207.64 1067.44 2208.34 1068.68C2209.07 1069.9 2209.43 1071.28 2209.43 1072.84C2209.43 1074.38 2209.07 1075.76 2208.34 1077C2207.64 1078.24 2206.67 1079.22 2205.43 1079.94C2204.21 1080.65 2202.83 1081 2201.27 1081ZM2220.5 1080.97C2219.09 1080.97 2217.82 1080.64 2216.69 1079.98C2215.58 1079.29 2214.71 1078.38 2214.07 1077.22C2213.43 1076.05 2213.11 1074.74 2213.11 1073.29C2213.11 1071.88 2213.43 1070.62 2214.07 1069.51C2214.71 1068.38 2215.58 1067.5 2216.69 1066.86C2217.82 1066.22 2219.09 1065.9 2220.5 1065.9C2221.91 1065.9 2223.17 1066.22 2224.28 1066.86C2225.38 1067.5 2226.26 1068.38 2226.9 1069.51C2227.56 1070.62 2227.88 1071.88 2227.86 1073.29C2227.86 1074.74 2227.53 1076.05 2226.87 1077.22C2226.23 1078.38 2225.35 1079.29 2224.24 1079.98C2223.13 1080.64 2221.89 1080.97 2220.5 1080.97ZM2220.5 1078.02C2221.29 1078.02 2221.99 1077.81 2222.61 1077.38C2223.25 1076.96 2223.75 1076.39 2224.12 1075.69C2224.48 1074.96 2224.66 1074.16 2224.66 1073.29C2224.68 1072.43 2224.51 1071.68 2224.15 1071.02C2223.78 1070.33 2223.28 1069.8 2222.64 1069.42C2222.02 1069.01 2221.31 1068.81 2220.5 1068.81C2219.71 1068.81 2219 1069.01 2218.36 1069.42C2217.72 1069.8 2217.21 1070.33 2216.85 1071.02C2216.49 1071.68 2216.31 1072.43 2216.31 1073.29C2216.31 1074.16 2216.48 1074.96 2216.82 1075.69C2217.18 1076.39 2217.68 1076.96 2218.32 1077.38C2218.96 1077.81 2219.69 1078.02 2220.5 1078.02ZM2220.5 1068.23C2219.28 1068.23 2218.2 1067.97 2217.24 1067.43C2216.3 1066.9 2215.55 1066.18 2215 1065.29C2214.44 1064.37 2214.16 1063.34 2214.16 1062.18C2214.16 1060.97 2214.44 1059.89 2215 1058.95C2215.55 1057.99 2216.3 1057.23 2217.24 1056.68C2218.2 1056.1 2219.28 1055.82 2220.5 1055.82C2221.72 1055.79 2222.79 1056.06 2223.73 1056.62C2224.69 1057.17 2225.45 1057.93 2226 1058.89C2226.56 1059.85 2226.82 1060.95 2226.8 1062.18C2226.8 1063.34 2226.53 1064.37 2225.97 1065.29C2225.42 1066.18 2224.66 1066.9 2223.7 1067.43C2222.76 1067.97 2221.69 1068.23 2220.5 1068.23ZM2220.5 1065.58C2221.1 1065.58 2221.63 1065.42 2222.1 1065.1C2222.57 1064.78 2222.94 1064.36 2223.22 1063.85C2223.5 1063.31 2223.64 1062.73 2223.64 1062.09C2223.66 1061.45 2223.53 1060.88 2223.25 1060.39C2222.97 1059.9 2222.6 1059.52 2222.13 1059.24C2221.66 1058.94 2221.12 1058.79 2220.5 1058.79C2219.6 1058.79 2218.86 1059.1 2218.26 1059.72C2217.66 1060.34 2217.35 1061.13 2217.33 1062.09C2217.31 1063.05 2217.6 1063.87 2218.2 1064.55C2218.81 1065.23 2219.58 1065.58 2220.5 1065.58Z" fill="#490403"/>
    </g>
    <rect x="2176" y="1119" width="96" height="57" rx="5" transform="rotate(-90 2176 1119)" stroke="#490403" stroke-width="4"/>
    </g>
    </g>
    <g id="154">
    <g id="chair_8">
    <path id="Rectangle 1_8" d="M1908.25 1049.47L1940.89 1051.55C1944.09 1051.75 1946.7 1054.1 1947.15 1057.2C1947.81 1061.73 1948.5 1067.56 1948.5 1072C1948.5 1076.44 1947.81 1082.27 1947.15 1086.8C1946.7 1089.9 1944.09 1092.25 1940.89 1092.45L1908.25 1094.53C1904.9 1094.75 1901.95 1092.57 1901.28 1089.39C1900.19 1084.18 1899 1077.26 1899 1072C1899 1066.74 1900.19 1059.82 1901.28 1054.61C1901.95 1051.43 1904.9 1049.25 1908.25 1049.47Z" fill="#490403" fill-opacity="0.1" stroke="#490403" stroke-width="4"/>
    <path id="Rectangle 2_8" d="M1953.91 1087C1952.38 1087 1951.22 1085.64 1951.43 1084.13C1951.87 1080.96 1952.5 1075.82 1952.5 1072C1952.5 1068.18 1951.87 1063.04 1951.43 1059.87C1951.22 1058.36 1952.38 1057 1953.91 1057V1057C1955.11 1057 1956.14 1057.87 1956.32 1059.06C1956.76 1062.1 1957.5 1067.84 1957.5 1072C1957.5 1076.16 1956.76 1081.9 1956.32 1084.94C1956.14 1086.13 1955.11 1087 1953.91 1087V1087Z" fill="#490403"/>
    <rect id="Rectangle 3_8" x="1909.35" y="1103" width="5" height="31" rx="2.5" transform="rotate(-94 1909.35 1103)" fill="#490403"/>
    <rect id="Rectangle 4_8" x="1908" y="1045.84" width="5" height="31" rx="2.5" transform="rotate(-86 1908 1045.84)" fill="#490403"/>
    </g>
    <g id="table_8">
    <g clip-path="url(#clip7_14_28)">
    <rect x="1830" y="1122" width="100" height="61" rx="7" transform="rotate(-90 1830 1122)" fill="#490403" fill-opacity="0.1"/>
    <path id="01_8" d="M1841.21 1082C1840.79 1082 1840.41 1081.84 1840.09 1081.52C1839.77 1081.2 1839.61 1080.82 1839.61 1080.37V1060.85L1837.28 1061.84C1836.91 1061.99 1836.57 1062.06 1836.25 1062.06C1835.78 1062.06 1835.39 1061.91 1835.07 1061.62C1834.77 1061.32 1834.62 1060.93 1834.62 1060.46C1834.62 1060.12 1834.71 1059.81 1834.88 1059.54C1835.05 1059.26 1835.31 1059.06 1835.68 1058.93L1840.67 1057.14C1840.77 1057.09 1840.88 1057.06 1840.99 1057.04C1841.09 1057.02 1841.19 1057.01 1841.28 1057.01C1841.77 1057.01 1842.15 1057.17 1842.43 1057.49C1842.73 1057.79 1842.88 1058.18 1842.88 1058.67V1080.37C1842.88 1080.82 1842.72 1081.2 1842.4 1081.52C1842.08 1081.84 1841.68 1082 1841.21 1082ZM1856.27 1082C1854.73 1082 1853.35 1081.65 1852.11 1080.94C1850.89 1080.22 1849.92 1079.24 1849.2 1078C1848.49 1076.76 1848.14 1075.38 1848.14 1073.84C1848.14 1073.37 1848.29 1072.99 1848.59 1072.69C1848.89 1072.37 1849.27 1072.21 1849.74 1072.21C1850.21 1072.21 1850.61 1072.37 1850.93 1072.69C1851.25 1072.99 1851.41 1073.37 1851.41 1073.84C1851.41 1074.76 1851.62 1075.59 1852.05 1076.34C1852.47 1077.08 1853.05 1077.67 1853.77 1078.1C1854.52 1078.52 1855.35 1078.74 1856.27 1078.74C1857.21 1078.74 1858.04 1078.52 1858.77 1078.1C1859.51 1077.67 1860.1 1077.08 1860.53 1076.34C1860.95 1075.59 1861.17 1074.76 1861.17 1073.84C1861.17 1072.9 1860.95 1072.07 1860.53 1071.34C1860.1 1070.6 1859.51 1070.01 1858.77 1069.58C1858.04 1069.16 1857.21 1068.94 1856.27 1068.94H1850.93C1850.46 1068.94 1850.07 1068.79 1849.77 1068.5C1849.48 1068.18 1849.33 1067.78 1849.33 1067.31V1058.67C1849.33 1058.2 1849.48 1057.81 1849.77 1057.49C1850.07 1057.17 1850.46 1057.01 1850.93 1057.01H1861.61C1862.06 1057.01 1862.45 1057.18 1862.77 1057.52C1863.09 1057.84 1863.25 1058.22 1863.25 1058.67C1863.25 1059.1 1863.09 1059.47 1862.77 1059.79C1862.47 1060.11 1862.08 1060.27 1861.61 1060.27H1852.56V1065.68H1856.27C1857.83 1065.68 1859.21 1066.04 1860.43 1066.77C1861.67 1067.47 1862.64 1068.44 1863.34 1069.68C1864.07 1070.9 1864.43 1072.28 1864.43 1073.84C1864.43 1075.38 1864.07 1076.76 1863.34 1078C1862.64 1079.24 1861.67 1080.22 1860.43 1080.94C1859.21 1081.65 1857.83 1082 1856.27 1082ZM1880.65 1082C1880.22 1082 1879.86 1081.84 1879.56 1081.52C1879.26 1081.2 1879.12 1080.82 1879.12 1080.37V1076.34H1868.46C1867.97 1076.34 1867.58 1076.19 1867.31 1075.89C1867.03 1075.59 1866.87 1075.25 1866.83 1074.86C1866.81 1074.46 1866.91 1074.1 1867.15 1073.78L1879.4 1057.71C1879.57 1057.5 1879.77 1057.33 1879.98 1057.2C1880.21 1057.07 1880.47 1057.01 1880.75 1057.01C1881.2 1057.01 1881.56 1057.17 1881.84 1057.49C1882.11 1057.81 1882.25 1058.2 1882.25 1058.67V1073.39H1884.17C1884.62 1073.39 1885 1073.5 1885.32 1073.71C1885.64 1073.93 1885.8 1074.31 1885.8 1074.86C1885.8 1075.27 1885.64 1075.62 1885.32 1075.92C1885 1076.2 1884.62 1076.34 1884.17 1076.34H1882.25V1080.37C1882.25 1080.82 1882.1 1081.2 1881.8 1081.52C1881.5 1081.84 1881.12 1082 1880.65 1082ZM1870.38 1074.29L1869.52 1073.39H1879.12V1060.21L1880.11 1061.49L1870.38 1074.29Z" fill="#490403"/>
    </g>
    <rect x="1832" y="1120" width="96" height="57" rx="5" transform="rotate(-90 1832 1120)" stroke="#490403" stroke-width="4"/>
    </g>
    </g>
    <g id="closet">
    <rect x="2110" y="871" width="123" height="36" rx="5" stroke="#490403" stroke-width="4"/>
    </g>
    <g id="closet_2">
    <rect x="1766" y="872" width="123" height="36" rx="5" stroke="#490403" stroke-width="4"/>
    </g>
    </g>
    <defs>
    <clipPath id="clip0_14_28">
    <rect x="2108" y="1015" width="100" height="61" rx="7" transform="rotate(-90 2108 1015)" fill="white"/>
    </clipPath>
    <clipPath id="clip1_14_28">
    <rect x="1764" y="1016" width="100" height="61" rx="7" transform="rotate(-90 1764 1016)" fill="white"/>
    </clipPath>
    <clipPath id="clip2_14_28">
    <rect x="2108" y="1121" width="100" height="61" rx="7" transform="rotate(-90 2108 1121)" fill="white"/>
    </clipPath>
    <clipPath id="clip3_14_28">
    <rect x="1764" y="1122" width="100" height="61" rx="7" transform="rotate(-90 1764 1122)" fill="white"/>
    </clipPath>
    <clipPath id="clip4_14_28">
    <rect x="2174" y="1015" width="100" height="61" rx="7" transform="rotate(-90 2174 1015)" fill="white"/>
    </clipPath>
    <clipPath id="clip5_14_28">
    <rect x="1830" y="1016" width="100" height="61" rx="7" transform="rotate(-90 1830 1016)" fill="white"/>
    </clipPath>
    <clipPath id="clip6_14_28">
    <rect x="2174" y="1121" width="100" height="61" rx="7" transform="rotate(-90 2174 1121)" fill="white"/>
    </clipPath>
    <clipPath id="clip7_14_28">
    <rect x="1830" y="1122" width="100" height="61" rx="7" transform="rotate(-90 1830 1122)" fill="white"/>
    </clipPath>
    </defs>
    </svg>
    